<svg version="1.1" id="Layer_1" xmlns="http://www.w3.org/2000/svg" xmlns:xlink="http://www.w3.org/1999/xlink" x="0px" y="0px"
	 width="100%" viewBox="0 0 496 496" enable-background="new 0 0 496 496" xml:space="preserve">
<path fill="#57ff93" opacity="1.000000" stroke="none" 
	d="
M37.712852,359.999939 
	C37.712639,347.501556 38.131809,335.485168 37.616760,323.508972 
	C36.837620,305.391937 48.690266,290.342896 69.381264,290.043854 
	C105.701897,289.518921 142.034836,289.848419 178.362595,289.804291 
	C180.462067,289.801758 182.249161,290.431213 183.841949,291.817871 
	C199.361847,305.329407 217.765152,311.654297 237.944717,313.865265 
	C261.591187,316.456116 284.380859,313.478271 306.292053,304.165710 
	C312.301575,301.611572 317.990967,298.417755 322.647949,293.780243 
	C325.718628,290.722412 329.116608,289.763641 333.412354,289.779755 
	C366.906647,289.905426 400.401825,289.847260 433.896545,289.772552 
	C455.411530,289.724548 469.339172,303.446289 469.337128,324.846527 
	C469.334259,354.509338 469.338684,384.172180 469.322449,413.834991 
	C469.310730,435.255585 456.200317,448.332092 434.689636,448.331451 
	C313.872101,448.327820 193.054565,448.316711 72.237022,448.285370 
	C56.123642,448.281189 42.895214,439.275635 39.245972,425.820679 
	C38.247742,422.140137 37.693401,418.363708 37.706387,414.490967 
	C37.766747,396.494141 37.721458,378.497009 37.712852,359.999939 
M238.714050,351.850494 
	C240.942642,356.312897 243.110291,360.807129 245.419418,365.227448 
	C247.209671,368.654480 250.453415,367.957520 253.376816,367.584137 
	C256.359253,367.203217 256.796814,364.832306 256.805237,362.346771 
	C256.850464,349.036774 256.842072,335.726318 256.961853,322.417053 
	C256.991791,319.089142 255.399216,318.109314 252.353607,318.117950 
	C249.275696,318.126648 247.184998,318.722504 247.256149,322.472839 
	C247.398148,329.957489 247.356842,337.446259 247.325119,344.933014 
	C247.319992,346.143829 248.001495,347.647156 246.354080,348.462769 
	C244.606110,347.677002 244.349457,345.954712 243.667923,344.455841 
	C240.228165,336.890778 236.673935,329.377655 233.242737,321.808746 
	C231.096542,317.074463 226.971405,318.064484 223.314621,318.522217 
	C219.923035,318.946716 220.341049,322.012878 220.337997,324.478302 
	C220.322357,337.123138 220.439697,349.769165 220.293213,362.412231 
	C220.248901,366.237000 221.571381,367.829712 225.473251,367.845306 
	C229.699631,367.862183 229.841278,365.282684 229.818192,362.227966 
	C229.765366,355.240356 229.751266,348.252045 229.796356,341.264496 
	C229.804092,340.067505 229.197449,338.519897 231.592331,337.629883 
	C233.837204,342.102417 236.114410,346.639374 238.714050,351.850494 
M248.884262,394.862061 
	C246.806274,388.637878 242.285828,385.122833 236.167847,383.351562 
	C229.962173,381.554901 223.625046,382.624634 217.346069,382.471619 
	C215.097168,382.416779 214.111786,383.864319 213.951279,385.962677 
	C212.885666,399.894867 213.380005,413.840637 213.661362,427.781433 
	C213.715561,430.466980 215.153610,432.026672 218.115891,431.929718 
	C223.427948,431.755890 228.765305,431.974030 234.053772,431.550293 
	C241.634628,430.942841 248.922516,424.493988 249.487854,417.498444 
	C250.074371,410.240753 250.235016,402.909088 248.884262,394.862061 
M362.925659,382.427582 
	C360.594269,382.440765 358.262482,382.431244 355.931580,382.472412 
	C352.386627,382.535004 350.333710,384.013245 350.352509,387.904541 
	C350.416870,401.231842 350.407227,414.559814 350.345673,427.887146 
	C350.333282,430.574249 351.300659,431.776093 354.108612,431.907196 
	C359.797211,432.172882 360.706665,431.423706 360.756683,425.533997 
	C360.768005,424.201324 360.680939,422.862885 360.777130,421.537079 
	C360.914032,419.650360 360.262726,417.209534 363.167725,416.822571 
	C365.829498,416.467987 368.586517,416.184967 370.008514,419.364929 
	C371.028107,421.645020 372.121857,423.892090 373.132446,426.176086 
	C375.813263,432.234802 378.249329,433.198944 385.003906,430.674744 
	C384.603577,426.259033 381.941711,422.704376 380.105591,418.877777 
	C378.539062,415.613007 378.628601,413.387177 381.325195,410.510925 
	C389.698029,401.580170 385.017548,386.498871 373.182404,383.373138 
	C370.098816,382.558746 366.968597,382.222839 362.925659,382.427582 
M140.407990,317.333374 
	C129.551453,317.540680 121.927841,323.655334 121.445908,333.023865 
	C121.104919,339.652557 121.119911,346.325623 121.444618,352.955933 
	C121.866577,361.572327 128.782974,368.255035 137.183075,368.706146 
	C149.246216,369.354034 155.860992,364.813751 157.865784,354.779266 
	C159.284744,347.677094 158.954056,340.503387 158.423065,333.434906 
	C157.701309,323.826965 151.159607,318.144745 140.407990,317.333374 
M201.519089,399.134644 
	C201.251511,397.832458 201.002426,396.526184 200.713364,395.228790 
	C198.634354,385.897125 191.130188,381.431122 179.064377,382.336273 
	C170.846283,382.952728 164.847336,389.095123 164.430161,397.858643 
	C164.130112,404.161774 164.126999,410.503387 164.439240,416.805634 
	C164.914963,426.407806 172.110199,433.332916 182.238083,433.409790 
	C190.261108,433.470703 199.096161,429.202484 200.888321,419.406067 
	C202.072647,412.932373 201.392578,406.482788 201.519089,399.134644 
M170.950043,336.633789 
	C171.073349,342.290253 171.058121,347.954102 171.357880,353.601196 
	C171.675140,359.578522 174.722931,363.949585 180.056152,366.625671 
	C193.066101,373.153778 206.108932,366.046326 208.327301,351.265015 
	C209.644897,342.485657 208.649384,341.291901 199.985153,341.283752 
	C198.320465,341.282196 196.655746,341.306366 194.991058,341.320892 
	C192.682068,341.341064 191.157486,342.210754 191.050613,344.784302 
	C190.945953,347.304657 192.005341,348.499146 194.606277,348.330078 
	C197.883514,348.117065 198.497589,350.122437 198.222733,352.839020 
	C197.777344,357.241333 194.688232,360.104370 190.236267,360.193573 
	C185.506439,360.288361 181.938904,357.455322 181.755524,352.903046 
	C181.507797,346.752838 181.723953,340.585327 181.636124,334.426758 
	C181.576996,330.282593 183.157669,327.230255 187.236343,326.031311 
	C191.243317,324.853394 194.355255,326.417114 196.727402,329.760529 
	C198.880417,332.795166 203.408432,333.981445 205.570496,331.868408 
	C208.524033,328.981842 206.404572,326.339874 204.531952,323.993835 
	C199.628387,317.850555 190.754669,315.631378 182.215561,318.294159 
	C173.649368,320.965363 171.014771,327.485199 170.950043,336.633789 
M262.275787,411.430115 
	C262.280701,412.596680 262.331940,413.765228 262.282928,414.929535 
	C261.962952,422.533905 264.910767,428.473206 272.040283,431.341614 
	C279.580292,434.375183 287.130646,433.899139 293.695496,428.520630 
	C296.886505,425.906281 298.759583,422.485626 298.747253,418.103577 
	C298.704926,403.072388 301.071625,405.636536 285.813965,405.383789 
	C283.749298,405.349579 281.655121,405.413239 281.440125,408.246277 
	C281.245972,410.804718 282.718689,411.872223 285.018188,412.090179 
	C289.662048,412.530365 289.703339,415.446869 288.736877,418.918488 
	C287.539185,423.220612 284.371613,424.435394 280.312500,424.357819 
	C276.053345,424.276398 273.221375,422.235748 272.527496,418.068146 
	C271.401398,411.304840 271.374481,404.455505 272.459351,397.684723 
	C273.398865,391.821350 277.066742,389.540039 282.834808,390.595673 
	C285.421783,391.069092 286.745300,392.847260 288.125061,394.783600 
	C290.459045,398.059113 293.889496,397.181763 296.725525,396.175812 
	C298.818970,395.433289 297.951355,392.992920 297.255249,391.306030 
	C294.448425,384.504089 285.138550,380.754211 275.258484,382.368225 
	C268.415497,383.486084 262.719452,389.786041 262.363037,396.955536 
	C262.139862,401.444824 262.290009,405.952667 262.275787,411.430115 
M416.550934,338.345490 
	C411.907166,339.020416 410.547913,336.903381 410.551422,332.404083 
	C410.555176,327.592834 413.257812,327.504089 416.689606,327.611298 
	C419.679504,327.704712 422.675995,327.628693 425.668732,327.578278 
	C429.061188,327.521149 429.623505,325.332153 429.632874,322.498322 
	C429.642303,319.639008 428.677795,318.210022 425.574768,318.265320 
	C418.758789,318.386810 411.938904,318.314026 405.120850,318.277222 
	C401.769073,318.259155 400.309052,319.924774 400.316162,323.202942 
	C400.345703,336.839508 400.352600,350.476257 400.316376,364.112762 
	C400.309967,366.533112 401.193420,367.918335 403.759949,367.916595 
	C411.242645,367.911530 418.725433,367.936432 426.208038,367.909637 
	C429.161377,367.899078 429.645081,365.935638 429.634705,363.506012 
	C429.623932,360.987366 428.894287,359.301361 425.975159,359.341400 
	C422.483795,359.389282 418.983795,359.181305 415.500671,359.352173 
	C411.763367,359.535583 410.593994,357.873199 410.637909,354.287994 
	C410.715271,347.970581 410.870483,347.649231 417.404266,347.636292 
	C419.067230,347.632996 420.737610,347.549561 422.391663,347.674072 
	C425.537109,347.910858 426.997192,346.701965 426.878296,343.389984 
	C426.769714,340.364990 426.256805,338.072632 422.478973,338.338226 
	C420.824554,338.454529 419.154449,338.348450 416.550934,338.345490 
M94.162422,359.933533 
	C88.958633,360.200439 86.026031,357.649658 85.313103,352.587860 
	C84.334740,345.641418 84.116035,338.671112 85.772896,331.797852 
	C86.655090,328.138214 89.280922,326.106781 93.023781,326.125641 
	C96.676338,326.144043 99.594246,327.755676 100.217644,331.688904 
	C101.029892,336.813660 104.897079,335.901306 107.901711,335.326172 
	C111.560051,334.625916 110.841423,331.513062 110.096703,328.858398 
	C107.938858,321.166473 102.483101,317.373352 93.590111,317.328949 
	C84.192528,317.282043 77.710083,321.390564 75.607414,329.289459 
	C73.438904,337.435760 73.598663,345.842438 75.049484,354.019440 
	C77.628304,368.553925 94.980171,374.247009 106.070656,364.509613 
	C108.684837,362.214386 110.272682,359.386536 110.595474,355.919647 
	C110.737701,354.392090 110.671379,352.503754 108.702225,352.464111 
	C105.408211,352.397858 101.236534,350.166199 99.776215,355.767731 
	C99.216652,357.914093 97.081299,359.051544 94.162422,359.933533 
M127.633759,406.523743 
	C127.672752,403.693939 127.407829,400.818542 127.823532,398.045227 
	C128.414581,394.102142 130.619339,391.231750 134.898148,390.803680 
	C138.885666,390.404785 141.865936,392.117889 142.801514,396.095551 
	C143.972137,401.072388 147.801422,400.151276 150.724197,399.416748 
	C154.533569,398.459381 152.826279,395.011475 152.210815,392.701996 
	C150.421112,385.986237 143.849838,381.816925 135.527512,381.717590 
	C127.730530,381.624481 120.587814,385.633942 118.974380,392.165070 
	C116.479996,402.262268 116.092842,412.606354 119.120010,422.703827 
	C121.049713,429.140594 127.709404,433.256439 135.088989,433.374603 
	C143.170334,433.503998 150.063095,429.614655 152.071808,423.556244 
	C152.829254,421.271729 154.031403,418.033539 151.186081,416.927948 
	C148.377213,415.836517 144.574097,414.924530 142.694000,419.291046 
	C141.040710,423.130737 137.958801,424.966522 133.860107,424.135651 
	C129.624084,423.276886 128.101074,419.877563 127.753754,415.987793 
	C127.502815,413.177429 127.662094,410.330444 127.633759,406.523743 
M331.362732,431.880676 
	C332.195282,431.879822 333.028595,431.856049 333.860291,431.882233 
	C336.834778,431.975830 339.146729,431.472198 339.032440,427.619293 
	C338.923859,423.960266 336.848297,423.208649 333.763763,423.325409 
	C331.103699,423.426056 328.430481,423.218384 325.773438,423.352142 
	C322.222626,423.530945 320.663239,422.159210 320.654572,418.432983 
	C320.639771,412.065857 320.840942,411.678711 327.260559,411.629395 
	C328.925629,411.616638 330.591919,411.580933 332.255707,411.626495 
	C334.679993,411.692810 336.535309,411.210907 336.660736,408.211121 
	C336.777161,405.426392 336.418762,403.123688 332.950684,402.992188 
	C330.301849,402.891785 327.650452,402.823486 324.999878,402.811615 
	C320.565125,402.791718 320.683594,399.775299 320.669952,396.603333 
	C320.656281,393.431213 321.527496,391.476654 325.180389,391.639740 
	C328.503387,391.788147 331.839569,391.615234 335.169312,391.647766 
	C338.542908,391.680725 339.427917,389.461090 339.492065,386.740112 
	C339.557953,383.943848 338.053558,382.416962 335.175812,382.418274 
	C328.682343,382.421204 322.188446,382.389740 315.695526,382.452606 
	C312.412506,382.484375 310.960876,384.292236 310.968933,387.549500 
	C311.001831,400.869690 311.019623,414.190338 310.938446,427.510162 
	C310.916779,431.066132 312.704224,432.153717 315.918671,432.065552 
	C320.744171,431.933167 325.573364,431.933258 331.362732,431.880676 
M354.062653,330.678070 
	C356.755402,340.609619 359.481812,350.532196 362.129883,360.475647 
	C364.120850,367.951508 364.076111,367.963776 371.703674,367.831024 
	C372.701477,367.813660 373.703827,367.718750 374.696045,367.783264 
	C377.346680,367.955750 378.659241,366.479340 379.307831,364.155426 
	C383.056244,350.725159 386.836761,337.303619 390.514740,323.854095 
	C391.453125,320.422485 390.167267,318.553467 386.351227,318.250854 
	C382.656189,317.957794 381.383575,319.895111 380.618378,322.983093 
	C378.263214,332.487274 375.826416,341.971527 373.365753,351.449066 
	C372.909149,353.207733 372.955994,355.297729 371.253601,356.448944 
	C369.830627,355.693939 369.895050,354.630341 369.674438,353.679718 
	C367.311462,343.498291 364.952179,333.315887 362.554260,323.142609 
	C361.488831,318.622406 359.175751,317.342407 354.452942,318.438110 
	C349.819702,319.513031 351.906555,322.577728 352.450195,325.141144 
	C352.793335,326.759125 353.325348,328.337006 354.062653,330.678070 
M303.980469,367.698395 
	C311.183197,367.992340 311.586365,367.648651 311.608582,360.339844 
	C311.635864,351.366486 311.744751,342.387817 311.478790,333.421539 
	C311.356659,329.303680 312.264679,327.072449 316.915161,327.615143 
	C319.961456,327.970673 322.675140,327.426239 322.622345,323.324158 
	C322.570587,319.300903 320.053223,318.300476 316.681885,318.286591 
	C309.536438,318.257141 302.388153,318.364807 295.246552,318.190643 
	C291.676849,318.103638 289.442902,319.042480 289.421509,323.051636 
	C289.399048,327.257812 291.964325,328.059326 295.365479,327.642517 
	C299.814941,327.097229 301.133240,329.087189 301.037415,333.359222 
	C300.828766,342.659210 300.979767,351.969330 301.115051,361.273407 
	C301.147156,363.480591 300.539215,366.072540 303.980469,367.698395 
M331.372681,339.501160 
	C331.369629,347.499695 331.475983,355.500366 331.318787,363.495880 
	C331.236267,367.693359 333.810364,367.842896 336.884125,367.957153 
	C340.182587,368.079773 341.767334,367.002441 341.733765,363.413788 
	C341.609009,350.084076 341.659241,336.752411 341.693756,323.421631 
	C341.701904,320.273712 340.675598,318.335999 337.141144,318.268829 
	C333.452972,318.198700 331.432159,319.724854 331.405243,323.505188 
	C331.369659,328.503967 331.381073,333.503113 331.372681,339.501160 
M279.766174,351.494080 
	C279.745270,342.012543 279.696594,332.530975 279.717224,323.049530 
	C279.725372,319.301483 277.606598,318.266876 274.276123,318.180054 
	C271.290497,318.102234 270.056641,319.298431 270.069122,322.270691 
	C270.127106,336.076019 270.147888,349.881958 270.071259,363.687042 
	C270.052643,367.042603 271.694794,367.939545 274.713776,367.939850 
	C277.875885,367.940125 279.855774,367.109314 279.742188,363.468170 
	C279.628143,359.812836 279.750824,356.150116 279.766174,351.494080 
z"/>
<path fill="#57ff93" opacity="1.000000" stroke="none" 
	d="
M332.779480,271.956299 
	C325.111847,285.398132 313.579620,293.876221 300.036224,299.811920 
	C268.435760,313.661591 237.015823,312.966400 206.091492,297.733521 
	C193.175293,291.371155 182.095490,282.714111 175.523239,268.776978 
	C172.295135,271.632965 170.593063,269.701080 168.753494,267.355042 
	C159.754471,255.878601 155.954102,242.282639 152.798141,228.443237 
	C149.256439,212.912323 149.110397,197.128601 149.740601,181.317612 
	C149.811295,179.543869 150.502274,177.794846 151.032455,175.480713 
	C153.852829,178.090622 154.009201,181.336761 154.961151,184.104401 
	C157.769623,192.269669 161.781403,199.620300 168.123779,205.600281 
	C182.417465,219.077240 198.707352,219.186447 215.955994,212.751678 
	C217.817764,212.057129 219.645172,211.163986 221.323425,210.102097 
	C229.365891,205.013199 237.379440,202.430908 247.027664,206.567398 
	C253.825180,209.481689 261.182556,207.870834 267.883789,204.802658 
	C272.837036,202.534821 276.863434,202.785110 281.732452,205.995972 
	C291.238312,212.264618 301.775421,216.315369 313.464417,216.715881 
	C328.808228,217.241608 339.765106,209.703537 348.357391,197.937134 
	C352.516693,192.241318 355.112579,185.731171 356.572327,178.805374 
	C356.802643,177.712692 356.646088,176.456940 358.581726,175.395035 
	C360.669342,181.521027 361.369019,187.626816 361.085083,193.776306 
	C360.340912,209.894623 358.897034,225.925247 353.898804,241.423386 
	C350.703918,251.329773 346.725555,260.798798 339.438629,268.479614 
	C338.223785,269.760101 336.794006,272.727417 334.501862,268.743835 
	C333.929474,269.813293 333.433990,270.739075 332.779480,271.956299 
M274.505707,251.091675 
	C277.030365,249.336746 280.299774,248.211685 280.332550,244.308838 
	C273.515717,242.341583 233.660645,243.109787 230.799057,245.280823 
	C231.790344,248.445328 234.432358,249.960876 237.131119,251.238831 
	C249.316193,257.008972 261.579681,256.556427 274.505707,251.091675 
z"/>
<path fill="#57ff93" opacity="1.000000" stroke="none" 
	d="
M328.334106,132.625931 
	C338.301483,132.677277 347.690399,133.622391 356.998291,135.602509 
	C360.755219,136.401749 362.496613,138.336517 362.338593,142.123886 
	C362.220642,144.949234 362.312286,147.789352 362.067566,150.601730 
	C361.810760,153.553131 360.677338,155.883377 357.547913,157.123047 
	C354.186981,158.454453 352.794159,161.292999 352.213379,164.920609 
	C351.136230,171.648956 349.420410,178.255325 346.543701,184.492371 
	C343.461792,191.174210 338.424011,195.582596 331.044128,196.382721 
	C315.787964,198.036789 300.440155,198.388153 285.268494,195.996078 
	C275.956970,194.527954 270.153717,187.940277 266.964233,179.296692 
	C264.953613,173.847824 263.496765,168.195404 261.765778,162.642334 
	C260.556671,158.763519 258.188782,156.354477 253.842636,156.373108 
	C249.274109,156.392715 247.513306,159.405396 246.425278,163.166473 
	C245.040451,167.953506 243.833832,172.797745 242.286057,177.530884 
	C238.505356,189.092300 231.114456,195.761185 218.342300,196.589355 
	C205.506897,197.421646 192.752335,197.585556 179.966248,196.317459 
	C168.765564,195.206635 161.183960,186.784592 158.707886,172.625732 
	C158.221954,169.847015 157.957886,167.019897 157.310013,164.281693 
	C156.603973,161.297531 155.229477,158.420822 152.340912,157.109695 
	C148.472183,155.353683 147.564041,152.362900 147.701508,148.596115 
	C147.756134,147.099670 147.668442,145.598618 147.683060,144.100021 
	C147.747299,137.521423 148.502914,136.244720 155.200760,135.393127 
	C170.547028,133.441910 185.926285,132.579758 201.459137,133.169601 
	C215.669601,133.709244 229.455170,136.410873 243.341003,138.878876 
	C253.675339,140.715652 263.879456,139.270081 273.953949,136.838394 
	C291.706512,132.553406 309.654846,130.964096 328.334106,132.625931 
M338.691650,180.075455 
	C341.808899,171.562363 342.256592,162.538254 343.517029,153.694824 
	C344.283661,148.316193 342.041290,145.533478 336.460571,144.830368 
	C317.399200,142.428818 298.305695,142.108063 279.314026,145.527008 
	C273.146057,146.637405 270.445709,150.588333 271.495636,156.764236 
	C272.579498,163.139816 273.936462,169.458069 276.176361,175.595932 
	C278.704926,182.524841 283.520081,185.795593 290.650360,186.716263 
	C302.434753,188.237854 314.242981,187.875809 326.044037,187.540329 
	C331.112671,187.396240 336.077484,186.300766 338.691650,180.075455 
M189.576324,143.342911 
	C184.904251,143.137222 180.284103,143.686508 175.672668,144.323959 
	C169.948380,145.115219 166.346558,148.972946 166.385254,154.744125 
	C166.438919,162.750244 168.174072,170.512589 170.253235,178.214050 
	C171.564636,183.071579 174.548737,186.046326 179.501617,186.766052 
	C192.225983,188.615097 204.999603,188.143188 217.752396,187.166183 
	C225.647293,186.561356 230.277695,182.068451 232.537598,174.505859 
	C234.247849,168.782715 236.129425,163.115723 237.298248,157.252121 
	C238.504181,151.202362 236.253860,147.528320 230.181137,146.349014 
	C217.103256,143.809341 203.852386,143.191437 189.576324,143.342911 
z"/>
<path fill="#57ff93" opacity="1.000000" stroke="none" 
	d="
M169.678101,81.803864 
	C173.946991,76.067451 178.906006,71.710815 185.265442,69.150543 
	C187.365616,68.305016 188.905838,66.933357 190.246628,65.161209 
	C197.191513,55.981911 206.764252,51.978790 217.961624,51.736984 
	C221.782166,51.654484 224.951889,50.813648 228.203751,48.742958 
	C243.309677,39.123989 266.741882,39.929237 281.123291,50.468967 
	C283.295135,52.060650 285.350128,52.691151 288.002533,52.554089 
	C301.195557,51.872356 312.812103,55.023521 320.726227,66.658073 
	C321.636261,67.995918 323.039276,68.367104 324.448578,68.941071 
	C336.176086,73.717239 343.131531,82.427818 345.353394,94.872643 
	C345.839478,97.595108 346.945557,99.785049 348.918213,101.795959 
	C355.661896,108.670418 359.017303,116.906982 358.347076,126.657654 
	C358.176483,129.139114 358.067230,131.321976 354.673462,131.373810 
	C351.836060,131.417114 350.123535,130.287766 349.879395,127.500389 
	C349.084595,118.424522 345.662354,110.778442 338.128784,105.304054 
	C336.861633,104.383270 336.877502,103.094734 336.715454,101.763649 
	C335.162872,89.010345 328.970673,79.936890 316.080566,76.562973 
	C313.730591,75.947884 312.955383,74.492973 311.939117,72.765106 
	C308.285645,66.553482 302.457275,63.633850 295.628601,62.446518 
	C293.839172,62.135384 291.687592,62.099724 290.722931,64.001610 
	C289.800903,65.819313 291.439453,67.076286 292.582703,68.241081 
	C296.031860,71.755264 295.666443,75.843399 294.820740,80.322746 
	C292.732544,79.371376 292.488373,77.583549 291.796631,76.171638 
	C290.642548,73.816185 288.998932,71.355232 286.579803,71.152641 
	C281.123138,70.695663 279.207458,66.866867 277.128326,62.892620 
	C273.037323,55.072716 265.461548,53.215794 257.777649,52.511822 
	C247.592819,51.578716 237.788712,53.105885 229.900238,60.607208 
	C228.600937,61.842720 227.262466,62.238167 225.384628,61.882946 
	C213.314667,59.599724 203.869385,64.208427 196.457184,73.487724 
	C194.822968,75.533577 193.035889,76.860512 190.635498,77.863876 
	C180.187057,82.231300 174.280106,90.076752 173.369476,101.464966 
	C173.230728,103.200012 172.971985,104.725647 171.493622,105.865776 
	C164.761002,111.058044 161.604385,118.239037 160.306763,126.381691 
	C159.854630,129.218765 158.614838,130.945175 155.559845,131.164246 
	C153.074982,131.342407 151.820389,130.422226 151.677322,127.859398 
	C151.154984,118.501488 153.060699,109.880356 159.888565,103.068703 
	C162.506592,100.456886 164.084732,97.637878 164.667679,94.070587 
	C165.375580,89.738640 167.086517,85.779671 169.678101,81.803864 
z"/>
<path fill="#57ff93" opacity="1.000000" stroke="none" 
	d="
M240.518570,74.457092 
	C242.950546,72.822586 244.967453,71.134735 248.087067,70.309006 
	C246.946838,77.044975 240.768021,80.138000 238.846024,85.764038 
	C236.760605,91.868469 240.574341,97.277214 240.667206,103.565781 
	C234.972778,96.471169 228.615982,91.939934 219.186783,95.242546 
	C210.576981,98.258171 206.685287,104.796951 205.482986,114.124352 
	C201.021713,105.929779 203.965897,96.483704 211.876862,91.581276 
	C216.194412,88.905685 220.960831,87.474770 226.106232,88.113647 
	C229.604340,88.547981 231.858215,87.421402 232.925217,83.919250 
	C234.143860,79.919434 237.142578,77.240791 240.518570,74.457092 
z"/>
<path fill="#57ff93" opacity="1.000000" stroke="none" 
	d="
M288.266174,96.357544 
	C300.894928,96.251259 310.156677,102.351532 311.172333,112.045517 
	C300.046234,101.898712 288.932861,96.831680 277.130737,111.133080 
	C279.401855,103.064713 283.140564,95.703300 277.116028,87.274284 
	C283.571259,88.879005 284.086395,94.371384 288.266174,96.357544 
z"/>
<path fill="#57ff93" opacity="1.000000" stroke="none" 
	d="
M223.847168,413.904785 
	C223.833511,407.784821 223.968918,402.144226 223.747696,396.517700 
	C223.599106,392.738770 225.243866,391.572662 228.785126,391.669495 
	C235.859329,391.862946 239.066071,394.795532 239.329422,401.983032 
	C239.480896,406.117584 239.587677,410.282654 239.266647,414.399048 
	C238.761719,420.873444 232.159256,425.027252 226.147430,422.682068 
	C221.971710,421.053162 224.490356,417.201294 223.847168,413.904785 
z"/>
<path fill="#57ff93" opacity="1.000000" stroke="none" 
	d="
M375.242218,400.851196 
	C373.233398,407.302094 369.282654,410.139282 363.626953,408.089081 
	C357.787140,405.972107 361.735809,400.353912 360.892975,396.396545 
	C360.395111,394.059021 360.976929,391.912781 364.327515,391.610535 
	C371.286133,390.982880 374.337341,393.294006 375.242218,400.851196 
z"/>
<path fill="#57ff93" opacity="1.000000" stroke="none" 
	d="
M131.639740,342.009674 
	C131.653366,338.853241 131.589188,336.184692 131.706375,333.524139 
	C131.889725,329.361420 133.910233,326.390167 138.151367,325.881989 
	C142.293167,325.385712 146.214661,326.885803 147.233414,331.180206 
	C149.167633,339.333618 149.275650,347.709717 146.886154,355.807587 
	C145.743134,359.681213 142.108734,360.746552 138.328415,360.225433 
	C134.257721,359.664368 132.314514,356.681671 131.860672,352.980713 
	C131.437592,349.530518 131.688843,345.997650 131.639740,342.009674 
z"/>
<path fill="#57ff93" opacity="1.000000" stroke="none" 
	d="
M191.259201,410.865417 
	C191.287933,414.012299 191.123306,416.655945 190.320267,419.230865 
	C189.170074,422.919006 186.464783,424.561035 182.819473,424.655334 
	C179.087082,424.751862 176.177200,423.070129 175.403824,419.307617 
	C173.784683,411.430115 174.201096,403.423248 175.225937,395.538422 
	C175.632263,392.412323 178.436707,390.694916 181.893127,390.635742 
	C185.739914,390.569946 188.745300,391.791016 190.258652,395.572479 
	C192.189697,400.397675 190.953613,405.447723 191.259201,410.865417 
z"/>
<path fill="#57ff93" opacity="1.000000" stroke="none" 
	d="
M304.304443,177.364548 
	C296.616699,175.681931 293.261749,171.502823 293.476685,164.402466 
	C293.661804,158.287827 297.487366,153.624954 303.060364,152.721237 
	C310.384155,151.533646 316.502228,154.872086 318.670441,161.239166 
	C321.526611,169.626694 314.903168,177.301285 304.304443,177.364548 
z"/>
<path fill="#57ff93" opacity="1.000000" stroke="none" 
	d="
M207.046265,152.334167 
	C214.840759,156.567856 217.598373,163.742126 214.316345,170.451096 
	C211.353302,176.508011 203.577560,179.163132 197.174728,176.304306 
	C191.618225,173.823380 188.683716,168.061157 189.826721,161.875610 
	C190.944305,155.827545 195.908325,151.701126 202.230804,151.677780 
	C203.710846,151.672302 205.192078,151.990372 207.046265,152.334167 
z"/>
</svg>
